<?xml version="1.0" encoding="utf-8"?>
<!-- Generator: Adobe Illustrator 21.1.0, SVG Export Plug-In . SVG Version: 6.00 Build 0)  -->
<svg version="1.1" id="Layer_1" xmlns="http://www.w3.org/2000/svg" xmlns:xlink="http://www.w3.org/1999/xlink" x="0px" y="0px"
	 viewBox="0 0 360 360" style="enable-background:new 0 0 360 360;" xml:space="preserve">
<style type="text/css">
	.st0{fill:#C1C1C1;}
	.st1{fill:#EADB9D;}
	.st2{fill:#F2C608;}
</style>
<g>
	<path class="st0" d="M26.9,338.5c-1.8,0-3.3-1.5-3.3-3.3V32c0-1.8,1.5-3.3,3.3-3.3s3.3,1.5,3.3,3.3v303.3
		C30.2,337,28.7,338.5,26.9,338.5z"/>
	<path class="st0" d="M40.3,59.8H13.5c-1.8,0-3.3-1.5-3.3-3.3c0-1.8,1.5-3.3,3.3-3.3h26.8c1.8,0,3.3,1.5,3.3,3.3
		C43.6,58.4,42.2,59.8,40.3,59.8z"/>
	<path class="st0" d="M40.3,85.9H13.5c-1.8,0-3.3-1.5-3.3-3.3s1.5-3.3,3.3-3.3h26.8c1.8,0,3.3,1.5,3.3,3.3S42.2,85.9,40.3,85.9z"/>
	<path class="st0" d="M40.3,111.9H13.5c-1.8,0-3.3-1.5-3.3-3.3c0-1.8,1.5-3.3,3.3-3.3h26.8c1.8,0,3.3,1.5,3.3,3.3
		C43.6,110.4,42.2,111.9,40.3,111.9z"/>
	<path class="st0" d="M40.3,137.9H13.5c-1.8,0-3.3-1.5-3.3-3.3c0-1.8,1.5-3.3,3.3-3.3h26.8c1.8,0,3.3,1.5,3.3,3.3
		C43.6,136.5,42.2,137.9,40.3,137.9z"/>
	<path class="st0" d="M40.3,164H13.5c-1.8,0-3.3-1.5-3.3-3.3c0-1.8,1.5-3.3,3.3-3.3h26.8c1.8,0,3.3,1.5,3.3,3.3
		C43.6,162.5,42.2,164,40.3,164z"/>
	<path class="st0" d="M40.3,190H13.5c-1.8,0-3.3-1.5-3.3-3.3c0-1.8,1.5-3.3,3.3-3.3h26.8c1.8,0,3.3,1.5,3.3,3.3
		C43.6,188.5,42.2,190,40.3,190z"/>
	<path class="st0" d="M40.3,216H13.5c-1.8,0-3.3-1.5-3.3-3.3c0-1.8,1.5-3.3,3.3-3.3h26.8c1.8,0,3.3,1.5,3.3,3.3
		C43.6,214.5,42.2,216,40.3,216z"/>
	<path class="st0" d="M40.3,242H13.5c-1.8,0-3.3-1.5-3.3-3.3c0-1.8,1.5-3.3,3.3-3.3h26.8c1.8,0,3.3,1.5,3.3,3.3
		C43.6,240.6,42.2,242,40.3,242z"/>
	<path class="st0" d="M40.3,268.1H13.5c-1.8,0-3.3-1.5-3.3-3.3s1.5-3.3,3.3-3.3h26.8c1.8,0,3.3,1.5,3.3,3.3S42.2,268.1,40.3,268.1z"
		/>
	<path class="st0" d="M40.3,294.1H13.5c-1.8,0-3.3-1.5-3.3-3.3s1.5-3.3,3.3-3.3h26.8c1.8,0,3.3,1.5,3.3,3.3S42.2,294.1,40.3,294.1z"
		/>
	<path class="st0" d="M40.3,320.1H13.5c-1.8,0-3.3-1.5-3.3-3.3s1.5-3.3,3.3-3.3h26.8c1.8,0,3.3,1.5,3.3,3.3S42.2,320.1,40.3,320.1z"
		/>
</g>
<g>
	<path class="st1" d="M336.4,55.2l-89.2,155.3l-53.4-67l-56.2,112.2L102.7,197L26.9,335.2h287.3c12.2,0,22.1-9.9,22.1-22.1V55.2z"/>
</g>
<path class="st2" d="M26.9,343.4c-1.3,0-2.7-0.3-3.9-1c-4-2.2-5.4-7.2-3.3-11.2L95.5,193c1.4-2.6,4.1-4.2,7.1-4.3
	c2.9-0.1,5.7,1.5,7.2,4l27.2,45.8l49.4-98.7c1.3-2.5,3.7-4.2,6.5-4.5c2.8-0.3,5.5,0.9,7.3,3l45.9,57.6l79.4-137.5
	c2.3-3.9,7.3-5.3,11.2-3c3.9,2.3,5.3,7.3,3,11.2l-85.5,147.9c-1.4,2.4-3.8,3.9-6.5,4.1c-2.7,0.2-5.3-0.9-7-3.1l-45.4-56.9
	l-50.4,100.7c-1.3,2.7-4.1,4.4-7.1,4.5c-3,0.1-5.8-1.4-7.4-4L103,213.5L34.1,339.2C32.6,341.9,29.8,343.4,26.9,343.4z"/>
<path class="st2" d="M355,87.2l-6.6-52.3c-0.6-4.4-5.4-6.7-9.2-4.4l-44.3,27.2L355,87.2z"/>
</svg>
